<?xml version="1.0" encoding="utf-8"?>
<!-- Generator: Adobe Illustrator 26.0.1, SVG Export Plug-In . SVG Version: 6.00 Build 0)  -->
<svg version="1.1" baseProfile="tiny" id="Layer_1" xmlns="http://www.w3.org/2000/svg" xmlns:xlink="http://www.w3.org/1999/xlink"
	 x="0px" y="0px" viewBox="0 0 100 100" overflow="visible" xml:space="preserve">
<g>
	<path fill="#4773AA" d="M90.5,30.6h-0.2h-0.2c0,0-9,2.2-17.4,1.4c-8.6-0.7-17-4.3-17-4.5l-0.2-0.2h-0.2c0,1.1,0.2,2.2,0.2,3.2
		c2.5,1.1,9.7,3.6,16.8,4.1c8.2,0.7,16.5-1.1,18.1-1.4c2.3,0.4,4.1,2.5,3.9,4.8c0,0.2-0.7,10.8-1.8,19.2
		c-2.2,16-14.2,30.1-24.9,29.2c-8.8-0.7-17-12-19-24.9C48,62.9,47.1,64,46.4,65c2.9,13.1,11.5,23.7,21.1,24.4c0.4,0,0.9,0,1.3,0
		c12,0,24.6-14.7,26.9-31.7c1.1-8.4,1.8-19.2,1.8-19.4C97.7,34.6,94.6,31,90.5,30.6z"/>
	<path fill="#4773AA" d="M52.7,35.7c-0.4-8.8-1.6-19.7-1.6-19.7c-0.4-3.4-3.4-5.7-6.6-5.6c0,0-8.8,3.8-17.9,4.7
		c-9,0.7-18.5-1.4-18.5-1.4c-3.2,0.2-5.7,3.2-5.6,6.6c0,0,0.9,11.6,1.8,19.7c2.2,17.4,15.6,32.3,27.1,31.2
		C43,70.1,53.6,53.2,52.7,35.7z M12.7,34.4c-0.2-1.8,2-3.6,4.8-3.8s5.4,1.1,5.4,2.9c0.2,1.8-2,3.6-4.8,3.8
		C15.2,37.4,12.7,36.2,12.7,34.4z M30.5,59.3c-5.6,0.5-12.9-2.7-13.4-10c0,0,3.2,4.8,13.1,4.1c9.7-0.9,12.2-6.3,12.2-6.3
		C42.7,54.5,36,58.8,30.5,59.3z M38.7,35.5c-2.9,0.2-5.4-1.1-5.4-2.9c-0.2-1.8,2-3.6,4.8-3.8s5.4,1.1,5.4,2.9
		C43.9,33.5,41.6,35.3,38.7,35.5z"/>
	<path fill="#4773AA" d="M57.2,72.8c0,0,3-4.7,12.2-3.8c9.1,0.7,11.5,5.9,11.5,5.9c0.5-7-5.6-11.1-10.9-11.5
		C64.7,62.9,57.9,65.9,57.2,72.8z"/>
	<path fill="#4773AA" d="M56.3,49.6c0.2-1.8,2.5-3,5.2-2.7c2.7,0.2,4.8,1.8,4.7,3.6s-2.5,3-5.2,2.7C58.2,52.9,56.1,51.2,56.3,49.6z"
		/>
	<path fill="#4773AA" d="M81.2,48.6c2.7,0.2,4.8,1.8,4.7,3.6c-0.2,1.8-2.5,3-5.2,2.7C78,54.7,75.8,53,76,51.2
		C76.2,49.5,78.5,48.4,81.2,48.6z"/>
</g>
</svg>
