<?xml version="1.0" encoding="utf-8"?>
<!-- Generator: Adobe Illustrator 26.0.1, SVG Export Plug-In . SVG Version: 6.00 Build 0)  -->
<svg version="1.1" baseProfile="tiny" id="Layer_1" xmlns="http://www.w3.org/2000/svg" xmlns:xlink="http://www.w3.org/1999/xlink"
	 x="0px" y="0px" viewBox="0 0 100 100" overflow="visible" xml:space="preserve">
<g>
	<path fill="#4773AA" d="M29.8,57.4l22.9-19.2l12.2-8c-12.6-11.1-28.7-15.3-46.4-7.4C-1,31.8-7.2,60.8,10,65.7
		c4.3,1.2,11.8-7.6,15.5-8.3C26.5,57.2,28.1,57,29.8,57.4z M46.5,25.7c3.5,0,6.4,2.3,6.6,5c0.2,2.9-2.5,5.2-6,5.2
		c-3.5,0-6.4-2.3-6.6-5C40.3,28.1,43,25.7,46.5,25.7z M13.3,54.6c-3.5,0-6.4-2.3-6.6-5c-0.2-2.9,2.5-5.2,6-5.2s6.4,2.3,6.6,5
		C19.3,52.1,16.8,54.4,13.3,54.6z M20.1,34.5c-0.2-2.9,2.5-5.2,6-5.2s6.4,2.3,6.6,5c0.2,2.9-2.5,5.2-6,5.2
		C23.2,39.5,20.3,37.4,20.1,34.5z"/>
	<path fill="#4773AA" d="M73.2,39.5c-0.6-0.8-1.2-1.6-1.9-2.3l-9.9,9.5L37.6,64.1c1,6-10.1,8.3-10.9,14.9
		C25.5,90.9,54,91.9,65.5,86.4C82.9,78.1,86.2,57,73.2,39.5z M48.2,85.1c-3.5,0-6.4-2.3-6.6-5c-0.2-2.9,2.5-5.2,6-5.2s6.4,2.3,6.6,5
		C54.4,82.8,51.7,85.1,48.2,85.1z M64.5,74.6c-3.5,0-6.4-2.3-6.6-5c-0.2-2.9,2.5-5.2,6-5.2c3.5,0,6.4,2.3,6.6,5
		C70.5,72.3,68,74.6,64.5,74.6z M67.2,57.5c-3.5,0-6.4-2.3-6.6-5c-0.2-2.9,2.5-5.2,6-5.2c3.5,0,6.4,2.3,6.6,5
		C73.2,55,70.7,57.5,67.2,57.5z"/>
	<path fill="#4773AA" d="M53.7,39.9l-50,41.9c-0.8,0.6-1,1.7-0.4,2.5s1.7,1,2.5,0.4l52.8-38.6L53.7,39.9z"/>
	<polygon fill="#4773AA" points="70.9,28.6 73.6,32.1 60.6,44.9 55.6,38.7 	"/>
	<path fill="#4773AA" d="M72.5,27.9l2.1,2.7c0,0,8,1.2,14.7-1.6c13.2-5.4,10.9-17.1,9.5-18.6c0,0-1.7,4.8-7.6,5.6
		C82.4,17.4,80,11.6,72.5,27.9z"/>
</g>
</svg>
