<?xml version="1.0" encoding="utf-8"?>
<!-- Generator: Adobe Illustrator 26.0.1, SVG Export Plug-In . SVG Version: 6.00 Build 0)  -->
<svg version="1.1" baseProfile="tiny" id="Layer_1" xmlns="http://www.w3.org/2000/svg" xmlns:xlink="http://www.w3.org/1999/xlink"
	 x="0px" y="0px" viewBox="0 0 51.7 40.8" overflow="visible" xml:space="preserve">
<g>
	<path fill="#112E51" d="M15.4,24.2l11.8-9.9l6.3-4.1C27,4.5,18.7,2.3,9.6,6.4C-0.5,11-3.7,26,5.2,28.5c2.2,0.6,6.1-3.9,8-4.3
		C13.7,24.1,14.5,24,15.4,24.2z M24,7.9c1.8,0,3.3,1.2,3.4,2.6c0.1,1.5-1.3,2.7-3.1,2.7c-1.8,0-3.3-1.2-3.4-2.6
		C20.8,9.1,22.2,7.9,24,7.9z M6.9,22.8c-1.8,0-3.3-1.2-3.4-2.6c-0.1-1.5,1.3-2.7,3.1-2.7c1.8,0,3.3,1.2,3.4,2.6
		C10,21.5,8.7,22.7,6.9,22.8z M10.4,12.4c-0.1-1.5,1.3-2.7,3.1-2.7c1.8,0,3.3,1.2,3.4,2.6c0.1,1.5-1.3,2.7-3.1,2.7
		C12,15,10.5,13.9,10.4,12.4z"/>
	<path fill="#112E51" d="M37.8,15c-0.3-0.4-0.6-0.8-1-1.2l-5.1,4.9l-12.3,9c0.5,3.1-5.2,4.3-5.6,7.7c-0.6,6.1,14.1,6.6,20,3.8
		C42.8,34.9,44.5,24,37.8,15z M24.9,38.5c-1.8,0-3.3-1.2-3.4-2.6c-0.1-1.5,1.3-2.7,3.1-2.7c1.8,0,3.3,1.2,3.4,2.6
		C28.1,37.3,26.7,38.5,24.9,38.5z M33.3,33.1c-1.8,0-3.3-1.2-3.4-2.6c-0.1-1.5,1.3-2.7,3.1-2.7c1.8,0,3.3,1.2,3.4,2.6
		C36.4,31.9,35.1,33.1,33.3,33.1z M34.7,24.3c-1.8,0-3.3-1.2-3.4-2.6c-0.1-1.5,1.3-2.7,3.1-2.7c1.8,0,3.3,1.2,3.4,2.6
		C37.8,23,36.5,24.3,34.7,24.3z"/>
	<path fill="#112E51" d="M27.7,15.2L1.9,36.8c-0.4,0.3-0.5,0.9-0.2,1.3c0.3,0.4,0.9,0.5,1.3,0.2l27.2-19.9L27.7,15.2z"/>
	<polygon fill="#112E51" points="36.6,9.4 38,11.2 31.3,17.8 28.7,14.6 	"/>
	<path fill="#112E51" d="M37.4,9l1.1,1.4c0,0,4.1,0.6,7.6-0.8c6.8-2.8,5.6-8.8,4.9-9.6c0,0-0.9,2.5-3.9,2.9
		C42.5,3.6,41.3,0.6,37.4,9z"/>
</g>
</svg>
