<?xml version="1.0" encoding="utf-8"?>
<!-- Generator: Adobe Illustrator 26.0.1, SVG Export Plug-In . SVG Version: 6.00 Build 0)  -->
<svg version="1.1" baseProfile="tiny" id="Layer_1" xmlns="http://www.w3.org/2000/svg" xmlns:xlink="http://www.w3.org/1999/xlink"
	 x="0px" y="0px" viewBox="0 0 100 100" overflow="visible" xml:space="preserve">
<path fill="#4773AA" d="M8.6,9.2c-3.7,0-6.7,3-6.7,6.5V73c1.8-1.4,4.1-2.2,6.7-2.2s4.9,0.8,6.7,2.2V15.7C15.1,12,12.3,9.2,8.6,9.2z"
	/>
<path fill="#4773AA" d="M98.3,9H16.8c1.6,1.8,2.4,4.3,2.4,6.7v65.6c0,1.2-0.8,2-2,2c-1.2,0-2-0.8-2-2c0-3.7-3-6.5-6.7-6.5
	s-6.7,3-6.7,6.5c0,1-0.8,1.8-1.8,2c1,4.5,4.9,7.7,9.5,7.7H98c1,0,1.8-0.8,1.8-1.8V10.8C100.1,9.8,99.3,9,98.3,9z M30,55.5
	c0.2-0.4,0.4-0.8,0.6-1l34.9-34.7c1.6-1.6,4.1-1.6,5.7,0c1.6,1.6,1.6,4.3,0,5.7L36.3,60.2c-0.2,0.2-0.6,0.4-1,0.6l-9.3,3.9L30,55.5z
	 M34.4,76.8l52.6-52.4l0.4,52.4H34.4z"/>
</svg>
