<?xml version="1.0" encoding="utf-8"?>
<!-- Generator: Adobe Illustrator 26.0.1, SVG Export Plug-In . SVG Version: 6.00 Build 0)  -->
<svg version="1.1" baseProfile="tiny" id="Layer_1" xmlns="http://www.w3.org/2000/svg" xmlns:xlink="http://www.w3.org/1999/xlink"
	 x="0px" y="0px" viewBox="0 0 100 100" overflow="visible" xml:space="preserve">
<g>
	<path fill="#4773AA" d="M37.5,77.9c0.4,0.4,1.2,0.4,1.6,0l41-41c0.4-0.4,0.4-1.2,0-1.6l-19-19c-0.4-0.4-1.2-0.4-1.6,0L18.3,57.1
		c-0.4,0.4-0.4,1.2,0,1.6L37.5,77.9z"/>
	<path fill="#4773AA" d="M11.4,87.6l22.8-6.1c0.8-0.2,1-1.2,0.4-1.8l-18-18c-0.6-0.6-1.6-0.4-1.8,0.4L8.4,84.9
		c-0.2,0.8,0,1.8,0.6,2.2C9.6,87.6,10.6,88,11.4,87.6z M17.3,67.8l11.1,11.1l-6.7,1.8l-6.1-6.1L17.3,67.8z"/>
	<path fill="#4773AA" d="M82.2,33.2c0.4,0.4,1.2,0.4,1.6,0l5.5-5.5c3-3,3-7.5,0-10.5L79.1,6.9c-3-3-7.5-3-10.5,0L63,12.4
		c-0.4,0.4-0.4,1.2,0,1.6L82.2,33.2z"/>
	<path fill="#4773AA" d="M89.2,90.4H10.8c-1.4,0-2.4,1.2-2.4,2.4l0,0c0,1.4,1.2,2.4,2.4,2.4h78.4c1.4,0,2.4-1.2,2.4-2.4l0,0
		C91.7,91.4,90.5,90.4,89.2,90.4z"/>
</g>
</svg>
