<?xml version="1.0" encoding="utf-8"?>
<!-- Generator: Adobe Illustrator 26.0.1, SVG Export Plug-In . SVG Version: 6.00 Build 0)  -->
<svg version="1.1" baseProfile="tiny" id="Layer_1" xmlns="http://www.w3.org/2000/svg" xmlns:xlink="http://www.w3.org/1999/xlink"
	 x="0px" y="0px" viewBox="0 0 100 100" overflow="visible" xml:space="preserve">
<g>
	<path fill="#4773AA" d="M88.5,87.7C88,86.6,75.8,62.9,55.8,66.4c-7.7,1.5-12.9,8.5-17.5,14.9c-3.7,5.1-7.2,9.9-11,10.5
		c-2,0.2-4.4-0.7-7.2-3.1c-2.6-2.2-3.7-4.2-3.5-6.4c0.2-2,1.3-3.9,2.6-5.3c2.8,1.7,5.7,0.7,5.7,0.7l39.9-33.5c0,0-6.8-2-10.7-6.2
		C49,32,48.8,27.8,48.8,27.8L16.8,66c0,0-2.4,2.6-0.9,6.4c-2.2,2.2-4.4,5.5-4.8,9.2c-0.4,4,1.5,7.7,5.3,11c3.5,3.1,7,4.6,10.3,4.6
		c0.4,0,0.9,0,1.3,0c6.2-0.7,10.5-6.6,14.9-12.7c4-5.7,8.3-11.6,14-12.7c15.8-2.9,26.7,18,26.7,18.4c0.7,1.3,2.4,1.8,3.7,1.3
		C88.7,90.8,89.3,89.2,88.5,87.7z"/>
	<path fill="#4773AA" d="M75.1,40.5c2.9-0.7,5.3-2.2,7.4-4.2l0,0l-1.1,1.1l1.1-1.1c-11.9-7.2-21-16.4-27-26.3l0,0l0,0
		c0,0,0,0.2-0.2,0.2l0,0l0,0c-0.2,0.2-0.2,0.4-0.4,0.4c-2.9,4.4-4,10.3-2.4,16.2C55.4,37,65.4,43.2,75.1,40.5z"/>
	<path fill="#4773AA" d="M85.8,32c2.4-4.2,3.1-9.6,1.7-14.9C84.7,6.8,74.6,0.6,64.8,3.3c-2.2,0.6-4.2,1.5-5.9,2.9
		C64.8,16,73.8,25,85.8,32z"/>
</g>
</svg>
