<?xml version="1.0" encoding="utf-8"?>
<!-- Generator: Adobe Illustrator 26.0.1, SVG Export Plug-In . SVG Version: 6.00 Build 0)  -->
<svg version="1.1" baseProfile="tiny" id="Layer_1" xmlns="http://www.w3.org/2000/svg" xmlns:xlink="http://www.w3.org/1999/xlink"
	 x="0px" y="0px" viewBox="0 0 29.5 41.7" overflow="visible" xml:space="preserve">
<path fill-rule="evenodd" fill="#112E51" d="M14.7,41.7l-2.6-4.2C8,30.9,0,22,0,14.7C0,6.6,6.6,0,14.7,0s14.7,6.6,14.7,14.7
	c0,7.3-8,16.2-12.1,22.8L14.7,41.7L14.7,41.7z M14.7,6.4c-4.6,0-8.3,3.7-8.3,8.3c0,4.6,3.7,8.3,8.3,8.3c4.6,0,8.3-3.7,8.3-8.3
	C23,10.1,19.3,6.4,14.7,6.4L14.7,6.4z"/>
</svg>
