<?xml version="1.0" encoding="utf-8"?>
<!-- Generator: Adobe Illustrator 26.0.1, SVG Export Plug-In . SVG Version: 6.00 Build 0)  -->
<svg version="1.1" baseProfile="tiny" id="Layer_1" xmlns="http://www.w3.org/2000/svg" xmlns:xlink="http://www.w3.org/1999/xlink"
	 x="0px" y="0px" viewBox="0 0 100 100" overflow="visible" xml:space="preserve">
<path fill="#4773AA" d="M90.6,3.3L35.7,21.1c-1.2,0.4-2,1.4-2,2.9v42.2c-4.7-2-10.4-2-16.2,0.4C8.1,70.7,3.2,80.5,6.7,88.3
	c3.5,8,13.9,10.8,23.3,6.8c8.4-3.7,13.3-11.9,11.7-19.2V37.9c0-1.2,0.8-2.5,2-2.9l38.1-10.6c1.8-0.6,3.7,0.8,3.7,2.7l0.6,29.3
	c-4.7-2-10.6-2.3-16.2,0.2c-9.4,4.1-14.3,13.9-10.8,21.7c3.5,8,13.9,10.8,23.3,6.8c7.6-3.3,12.3-10.4,11.9-17l0,0V6
	C94.5,4.1,92.6,2.7,90.6,3.3z"/>
</svg>
