<?xml version="1.0" encoding="utf-8"?>
<!-- Generator: Adobe Illustrator 26.0.1, SVG Export Plug-In . SVG Version: 6.00 Build 0)  -->
<svg version="1.1" baseProfile="tiny" id="Layer_1" xmlns="http://www.w3.org/2000/svg" xmlns:xlink="http://www.w3.org/1999/xlink"
	 x="0px" y="0px" viewBox="0 0 50.7 40.4" overflow="visible" xml:space="preserve">
<path fill="#4773AA" d="M34.6,23.1c0,5.1-4.1,9.2-9.2,9.2s-9.2-4.1-9.2-9.2s4.1-9.2,9.2-9.2S34.6,18.1,34.6,23.1z M50.7,10.3V36
	c0,2.4-2,4.4-4.4,4.4h-42C2,40.4,0,38.4,0,36V10.3c0-2.4,2-4.4,4.4-4.4h10.1L16,2.4c0.6-1.4,2-2.4,3.6-2.4h11.5c1.6,0,3,0.9,3.6,2.4
	l1.5,3.5h10.1C48.8,5.9,50.7,7.9,50.7,10.3z M9.1,11.2c0-0.6-0.5-1.1-1.1-1.1H5.2c-0.6,0-1.1,0.5-1.1,1.1v1.4c0,0.6,0.5,1.1,1.1,1.1
	h2.9c0.6,0,1.1-0.5,1.1-1.1V11.2z M39,23.1c0-1.8-0.4-3.6-1.1-5.3c-0.7-1.6-1.7-3.1-2.9-4.3c-1.3-1.3-2.7-2.2-4.3-2.9
	c-1.7-0.7-3.5-1.1-5.3-1.1s-3.6,0.4-5.3,1.1c-1.6,0.7-3.1,1.7-4.3,2.9c-1.3,1.3-2.2,2.7-2.9,4.3c-0.7,1.7-1.1,3.5-1.1,5.3
	c0,1.8,0.4,3.6,1.1,5.3c0.7,1.6,1.7,3.1,2.9,4.3c1.3,1.3,2.7,2.2,4.3,2.9c1.7,0.7,3.5,1.1,5.3,1.1s3.6-0.4,5.3-1.1
	c1.6-0.7,3.1-1.7,4.3-2.9c1.3-1.3,2.2-2.7,2.9-4.3C38.6,26.8,39,25,39,23.1z"/>
</svg>
