<?xml version="1.0" encoding="utf-8"?>
<!-- Generator: Adobe Illustrator 26.0.1, SVG Export Plug-In . SVG Version: 6.00 Build 0)  -->
<svg version="1.1" baseProfile="tiny" id="Layer_1" xmlns="http://www.w3.org/2000/svg" xmlns:xlink="http://www.w3.org/1999/xlink"
	 x="0px" y="0px" viewBox="0 0 100 100" overflow="visible" xml:space="preserve">
<path fill="#4773AA" d="M19.5,42.2h35.4c1.2,0,2.1,1,2.1,2.1c0,1.2-1,2.1-2.1,2.1H19.5c-1.2,0-2.1-1-2.1-2.1
	C17.6,43.1,18.5,42.2,19.5,42.2z M19.5,66.2c-1.2,0-2.1,1-2.1,2.1c0,1.2,1,2.1,2.1,2.1h14c1.2,0,2.1-1,2.1-2.1
	c0-1.2-0.8-2.1-1.9-2.1H19.5z M46.8,56.2c0-1.2-1-2.1-2.1-2.1H19.5c-1.2,0-2.1,1-2.1,2.1s1,2.1,2.1,2.1h25.2
	C45.8,58.1,46.8,57.3,46.8,56.2z M72.3,72.7v21.1H5.5V6.2h44c2.3,0,3.7,0.8,4.2,1.5c0.8,0.8,1,1.9,1,3.1c0,2.5,0,20.6,0,20.6h17.7
	v10.2l3.5-3.5v-8.6c0-1.7-0.6-3.3-1.5-4.6l-15.4-20c-0.8-1-2.3-2.1-4.4-2.1H2v94.4h73.8V69.3L72.3,72.7z M36.8,31.8c0.6,0,1-0.4,1-1
	s-0.4-1-1-1H19.5c-0.6,0-1,0.4-1,1s0.4,1,1,1H36.8z M95.8,44.3c2.9-2.9,2.9-7.7,0-10.6l0,0c-2.9-2.9-7.7-2.9-10.6,0L54.8,63.9
	l-7.3,17.9l17.9-7.3L95.8,44.3z M52,74.8l3.7-9l2.5,0.2l0.4,3.7v1h1l3.7,0.4l0.2,2.5l-9,3.7c-0.4-0.6-0.6-1-1.2-1.3
	C52.9,75.6,52.5,75.2,52,74.8z M92.3,45l-3.8,4L80.4,41l4-4L92.3,45z"/>
</svg>
